<svg width="22" height="22" viewBox="0 0 22 22" fill="none" xmlns="http://www.w3.org/2000/svg">
<g clip-path="url(#clip0_2518_740)">
<path d="M16.34 4.46C16.1027 4.46 15.8707 4.53038 15.6733 4.66224C15.476 4.79409 15.3222 4.98151 15.2313 5.20078C15.1405 5.42005 15.1168 5.66133 15.1631 5.89411C15.2094 6.12689 15.3236 6.34071 15.4915 6.50853C15.6593 6.67635 15.8731 6.79064 16.1059 6.83694C16.3387 6.88324 16.5799 6.85948 16.7992 6.76866C17.0185 6.67783 17.2059 6.52402 17.3378 6.32668C17.4696 6.12935 17.54 5.89734 17.54 5.66C17.54 5.34174 17.4136 5.03652 17.1885 4.81147C16.9635 4.58643 16.6583 4.46 16.34 4.46ZM20.94 6.88C20.9206 6.0503 20.7652 5.2294 20.48 4.45C20.2257 3.78313 19.83 3.17928 19.32 2.68C18.8248 2.16743 18.2196 1.77418 17.55 1.53C16.7727 1.23616 15.9508 1.07721 15.12 1.06C14.06 1 13.72 1 11 1C8.28 1 7.94 1 6.88 1.06C6.04915 1.07721 5.22734 1.23616 4.45 1.53C3.78168 1.77665 3.17693 2.16956 2.68 2.68C2.16743 3.17518 1.77418 3.78044 1.53 4.45C1.23616 5.22734 1.07721 6.04915 1.06 6.88C1 7.94 1 8.28 1 11C1 13.72 1 14.06 1.06 15.12C1.07721 15.9508 1.23616 16.7727 1.53 17.55C1.77418 18.2196 2.16743 18.8248 2.68 19.32C3.17693 19.8304 3.78168 20.2234 4.45 20.47C5.22734 20.7638 6.04915 20.9228 6.88 20.94C7.94 21 8.28 21 11 21C13.72 21 14.06 21 15.12 20.94C15.9508 20.9228 16.7727 20.7638 17.55 20.47C18.2196 20.2258 18.8248 19.8326 19.32 19.32C19.8322 18.8226 20.2283 18.2182 20.48 17.55C20.7652 16.7706 20.9206 15.9497 20.94 15.12C20.94 14.06 21 13.72 21 11C21 8.28 21 7.94 20.94 6.88ZM19.14 15C19.1327 15.6348 19.0178 16.2637 18.8 16.86C18.6403 17.2952 18.3839 17.6884 18.05 18.01C17.7256 18.3405 17.3332 18.5964 16.9 18.76C16.3037 18.9778 15.6748 19.0927 15.04 19.1C14.04 19.15 13.67 19.16 11.04 19.16C8.41 19.16 8.04 19.16 7.04 19.1C6.38089 19.1123 5.72459 19.0109 5.1 18.8C4.68578 18.6281 4.31136 18.3728 4 18.05C3.66809 17.7287 3.41484 17.3352 3.26 16.9C3.01586 16.2952 2.88044 15.6519 2.86 15C2.86 14 2.8 13.63 2.8 11C2.8 8.37 2.8 8 2.86 7C2.86448 6.35106 2.98295 5.70795 3.21 5.1C3.38605 4.67791 3.65626 4.30166 4 4C4.30381 3.65617 4.67929 3.3831 5.1 3.2C5.70955 2.98004 6.352 2.86508 7 2.86C8 2.86 8.37 2.8 11 2.8C13.63 2.8 14 2.8 15 2.86C15.6348 2.86728 16.2637 2.98225 16.86 3.2C17.3144 3.36865 17.7223 3.64285 18.05 4C18.3777 4.30718 18.6338 4.68273 18.8 5.1C19.0223 5.70893 19.1373 6.35178 19.14 7C19.19 8 19.2 8.37 19.2 11C19.2 13.63 19.19 14 19.14 15ZM11 5.87C9.98581 5.87198 8.99496 6.17453 8.15265 6.73942C7.31035 7.30431 6.65438 8.1062 6.26763 9.04375C5.88089 9.98131 5.78072 11.0125 5.97979 12.0069C6.17886 13.0014 6.66824 13.9145 7.38608 14.631C8.10392 15.3474 9.01801 15.835 10.0129 16.0321C11.0077 16.2293 12.0387 16.1271 12.9755 15.7385C13.9123 15.35 14.7129 14.6924 15.2761 13.849C15.8394 13.0056 16.14 12.0142 16.14 11C16.1413 10.3251 16.0092 9.65661 15.7512 9.03296C15.4933 8.40931 15.1146 7.84281 14.6369 7.36605C14.1592 6.88929 13.5919 6.51168 12.9678 6.25493C12.3436 5.99818 11.6749 5.86736 11 5.87ZM11 14.33C10.3414 14.33 9.69757 14.1347 9.14995 13.7688C8.60234 13.4029 8.17552 12.8828 7.92348 12.2743C7.67144 11.6659 7.6055 10.9963 7.73398 10.3504C7.86247 9.70439 8.17963 9.11104 8.64533 8.64533C9.11104 8.17963 9.70439 7.86247 10.3504 7.73398C10.9963 7.6055 11.6659 7.67144 12.2743 7.92348C12.8828 8.17552 13.4029 8.60234 13.7688 9.14995C14.1347 9.69757 14.33 10.3414 14.33 11C14.33 11.4373 14.2439 11.8703 14.0765 12.2743C13.9092 12.6784 13.6639 13.0454 13.3547 13.3547C13.0454 13.6639 12.6784 13.9092 12.2743 14.0765C11.8703 14.2439 11.4373 14.33 11 14.33Z" fill="black"/>
</g>
<defs>
<clipPath id="clip0_2518_740">
<rect width="20" height="20" fill="white" transform="translate(1 1)"/>
</clipPath>
</defs>
</svg>
